# xmcd
#
# Track frame offsets: 
#        150
#        12740
#        26378
#        39915
#        53690
#        67075
#        77793
#        96145
#        109118
#        124095
#        143738
#        158983
#
# Disc length: 2318 seconds
#
# Revision: 3
# Processed by: cddbd v1.5.2PL0 Copyright (c) Steve Scherf et al.
# Submitted via: ExactAudioCopyFreeDBPlugin 1.0
#
DISCID=9a090c0c
DTITLE=Otis Clay - The Complete Otis Clay on Hi Records
DYEAR=2000
DGENRE=Soul
TTITLE0=The Woman Don't Live Here No More
TTITLE1=You Can't Escape the Hands of Love
TTITLE2=You Did Something to Me
TTITLE3=It Was Jealousy
TTITLE4=Pussy Footing Around
TTITLE5=Too Much Mystery
TTITLE6=I Can't Take It
TTITLE7=I've Got to Find a Way (To Get You Back)
TTITLE8=Slow and Easy
TTITLE9=House Ain't a Home (Without a Woman)
TTITLE10=Keep on Loving Me
TTITLE11=Born to Be with You
EXTD=YEAR: 2000
EXTT0=
EXTT1=
EXTT2=
EXTT3=
EXTT4=
EXTT5=
EXTT6=
EXTT7=
EXTT8=
EXTT9=
EXTT10=
EXTT11=
PLAYORDER=
